{
    "asset" : {
        "generator" : "Khronos glTF Blender I/O v1.2.75",
        "version" : "2.0"
    },
    "scene" : 0,
    "scenes" : [
        {
            "name" : "Scene",
            "nodes" : [
                0,
                1,
                2,
                3,
                4,
                5,
                6,
                7
            ]
        }
    ],
    "nodes" : [
        {
            "mesh" : 0,
            "name" : "Box",
            "rotation" : [
                0.6819865107536316,
                -0.18680071830749512,
                0.1868007481098175,
                0.681986391544342
            ],
            "scale" : [
                0.02000000886619091,
                0.02000000886619091,
                0.020000003278255463
            ],
            "translation" : [
                -11.295360565185547,
                1.231597900390625,
                4.1944427490234375
            ]
        },
        {
            "mesh" : 1,
            "name" : "knob",
            "rotation" : [
                0.5,
                0.4999999403953552,
                -0.5000001192092896,
                0.49999991059303284
            ],
            "scale" : [
                10,
                10,
                10
            ],
            "translation" : [
                -0.0007265433669090271,
                -1.9409960508346558,
                0.11696725338697433
            ]
        },
        {
            "mesh" : 2,
            "name" : "Plane",
            "scale" : [
                19.999998092651367,
                19.999998092651367,
                19.999998092651367
            ],
            "translation" : [
                0,
                -2,
                0
            ]
        },
        {
            "mesh" : 3,
            "name" : "WalL",
            "rotation" : [
                -0.7071067690849304,
                0,
                0,
                0.7071068286895752
            ],
            "scale" : [
                19.999998092651367,
                19.999998092651367,
                19.999998092651367
            ],
            "translation" : [
                0,
                18,
                20
            ]
        },
        {
            "mesh" : 4,
            "name" : "WallR",
            "rotation" : [
                -0.4999999701976776,
                -0.5,
                -0.5,
                0.5
            ],
            "scale" : [
                19.999998092651367,
                19.999998092651367,
                19.999998092651367
            ],
            "translation" : [
                -20,
                17.999998092651367,
                0
            ]
        },
        {
            "mesh" : 5,
            "name" : "Plane.001",
            "scale" : [
                19.999998092651367,
                19.999998092651367,
                19.999998092651367
            ],
            "translation" : [
                0,
                38,
                0
            ]
        },
        {
            "mesh" : 6,
            "name" : "WallR.001",
            "rotation" : [
                -0.4999999701976776,
                -0.5,
                -0.5,
                0.5
            ],
            "scale" : [
                19.999998092651367,
                19.999998092651367,
                19.999998092651367
            ],
            "translation" : [
                20,
                17.999998092651367,
                0
            ]
        },
        {
            "mesh" : 7,
            "name" : "WalL.001",
            "rotation" : [
                -0.7071067690849304,
                0,
                0,
                0.7071068286895752
            ],
            "scale" : [
                19.999998092651367,
                19.999998092651367,
                19.999998092651367
            ],
            "translation" : [
                0,
                18,
                -20
            ]
        }
    ],
    "materials" : [
        {
            "doubleSided" : true,
            "emissiveFactor" : [
                0,
                0,
                0
            ],
            "name" : "FrontDoor",
            "normalTexture" : {
                "index" : 0,
                "texCoord" : 0
            },
            "pbrMetallicRoughness" : {
                "baseColorTexture" : {
                    "index" : 1,
                    "texCoord" : 0
                },
                "metallicRoughnessTexture" : {
                    "index" : 2,
                    "texCoord" : 0
                }
            }
        },
        {
            "doubleSided" : true,
            "name" : "chrome",
            "pbrMetallicRoughness" : {}
        },
        {
            "doubleSided" : true,
            "emissiveFactor" : [
                0,
                0,
                0
            ],
            "name" : "Floor",
            "normalTexture" : {
                "index" : 3,
                "texCoord" : 0
            },
            "pbrMetallicRoughness" : {
                "baseColorTexture" : {
                    "index" : 4,
                    "texCoord" : 0
                },
                "metallicRoughnessTexture" : {
                    "index" : 5,
                    "texCoord" : 0
                }
            }
        },
        {
            "doubleSided" : true,
            "emissiveFactor" : [
                0,
                0,
                0
            ],
            "name" : "WalL",
            "normalTexture" : {
                "index" : 6,
                "texCoord" : 0
            },
            "pbrMetallicRoughness" : {
                "baseColorTexture" : {
                    "index" : 7,
                    "texCoord" : 0
                },
                "metallicFactor" : 0,
                "metallicRoughnessTexture" : {
                    "index" : 8,
                    "texCoord" : 0
                }
            }
        },
        {
            "doubleSided" : true,
            "emissiveFactor" : [
                0,
                0,
                0
            ],
            "name" : "WallR",
            "normalTexture" : {
                "index" : 9,
                "texCoord" : 0
            },
            "pbrMetallicRoughness" : {
                "baseColorTexture" : {
                    "index" : 10,
                    "texCoord" : 0
                },
                "metallicFactor" : 0,
                "roughnessFactor" : 0.30000001192092896
            }
        },
        {
            "doubleSided" : true,
            "emissiveFactor" : [
                0,
                0,
                0
            ],
            "name" : "KitchenFloor",
            "normalTexture" : {
                "index" : 11,
                "texCoord" : 0
            },
            "pbrMetallicRoughness" : {
                "baseColorTexture" : {
                    "index" : 12,
                    "texCoord" : 0
                },
                "metallicRoughnessTexture" : {
                    "index" : 13,
                    "texCoord" : 0
                }
            }
        }
    ],
    "meshes" : [
        {
            "name" : "Box",
            "primitives" : [
                {
                    "attributes" : {
                        "POSITION" : 0,
                        "NORMAL" : 1,
                        "TEXCOORD_0" : 2
                    },
                    "indices" : 3,
                    "material" : 0
                }
            ]
        },
        {
            "name" : "knob",
            "primitives" : [
                {
                    "attributes" : {
                        "POSITION" : 4,
                        "NORMAL" : 5,
                        "TEXCOORD_0" : 6
                    },
                    "indices" : 7,
                    "material" : 1
                }
            ]
        },
        {
            "name" : "Plane",
            "primitives" : [
                {
                    "attributes" : {
                        "POSITION" : 8,
                        "NORMAL" : 9,
                        "TEXCOORD_0" : 10
                    },
                    "indices" : 11,
                    "material" : 2
                }
            ]
        },
        {
            "name" : "WalL",
            "primitives" : [
                {
                    "attributes" : {
                        "POSITION" : 12,
                        "NORMAL" : 13,
                        "TEXCOORD_0" : 14
                    },
                    "indices" : 11,
                    "material" : 3
                }
            ]
        },
        {
            "name" : "WallR",
            "primitives" : [
                {
                    "attributes" : {
                        "POSITION" : 15,
                        "NORMAL" : 16,
                        "TEXCOORD_0" : 17
                    },
                    "indices" : 11,
                    "material" : 4
                }
            ]
        },
        {
            "name" : "Plane.001",
            "primitives" : [
                {
                    "attributes" : {
                        "POSITION" : 18,
                        "NORMAL" : 19,
                        "TEXCOORD_0" : 20
                    },
                    "indices" : 11,
                    "material" : 2
                }
            ]
        },
        {
            "name" : "WallR.002",
            "primitives" : [
                {
                    "attributes" : {
                        "POSITION" : 21,
                        "NORMAL" : 22,
                        "TEXCOORD_0" : 23
                    },
                    "indices" : 11,
                    "material" : 5
                }
            ]
        },
        {
            "name" : "WalL.001",
            "primitives" : [
                {
                    "attributes" : {
                        "POSITION" : 24,
                        "NORMAL" : 25,
                        "TEXCOORD_0" : 26
                    },
                    "indices" : 11,
                    "material" : 3
                }
            ]
        }
    ],
    "textures" : [
        {
            "source" : 0
        },
        {
            "source" : 1
        },
        {
            "source" : 2
        },
        {
            "source" : 3
        },
        {
            "source" : 4
        },
        {
            "source" : 5
        },
        {
            "source" : 6
        },
        {
            "source" : 7
        },
        {
            "source" : 8
        },
        {
            "source" : 9
        },
        {
            "source" : 10
        },
        {
            "source" : 11
        },
        {
            "source" : 12
        },
        {
            "source" : 13
        }
    ],
    "images" : [
        {
            "mimeType" : "image/png",
            "name" : "EmbossedNorm",
            "uri" : "EmbossedNorm.png"
        },
        {
            "mimeType" : "image/png",
            "name" : "EmbossedBC",
            "uri" : "EmbossedBC.png"
        },
        {
            "mimeType" : "image/png",
            "name" : "EmbossedMet-EmbossedRough",
            "uri" : "EmbossedMet-EmbossedRough.png"
        },
        {
            "mimeType" : "image/png",
            "name" : "parquetNorm",
            "uri" : "parquetNorm.png"
        },
        {
            "mimeType" : "image/png",
            "name" : "parquetDiff",
            "uri" : "parquetDiff.png"
        },
        {
            "mimeType" : "image/png",
            "name" : "parquetMet-parquetRough",
            "uri" : "parquetMet-parquetRough.png"
        },
        {
            "mimeType" : "image/jpeg",
            "name" : "Plaster003_2K_Normal",
            "uri" : "Plaster003_2K_Normal.jpg"
        },
        {
            "mimeType" : "image/jpeg",
            "name" : "Plaster003_2K_Color",
            "uri" : "Plaster003_2K_Color.jpg"
        },
        {
            "mimeType" : "image/png",
            "name" : "Plaster003_2K_Roughness",
            "uri" : "Plaster003_2K_Roughness.png"
        },
        {
            "mimeType" : "image/png",
            "name" : "wall_2_normal",
            "uri" : "wall_2_normal.png"
        },
        {
            "mimeType" : "image/jpeg",
            "name" : "wall_2_basecolor",
            "uri" : "wall_2_basecolor.jpg"
        },
        {
            "mimeType" : "image/png",
            "name" : "kitchenTilesNorm",
            "uri" : "kitchenTilesNorm.png"
        },
        {
            "mimeType" : "image/png",
            "name" : "kitchenTilesDiff",
            "uri" : "kitchenTilesDiff.png"
        },
        {
            "mimeType" : "image/png",
            "name" : "kitchenTilesMet-kitchenTilesRough",
            "uri" : "kitchenTilesMet-kitchenTilesRough.png"
        }
    ],
    "accessors" : [
        {
            "bufferView" : 0,
            "componentType" : 5126,
            "count" : 420,
            "max" : [
                96.20429992675781,
                115.77886199951172,
                153.05166625976562
            ],
            "min" : [
                -222.97474670410156,
                -335.17633056640625,
                -99.96043395996094
            ],
            "type" : "VEC3"
        },
        {
            "bufferView" : 1,
            "componentType" : 5126,
            "count" : 420,
            "type" : "VEC3"
        },
        {
            "bufferView" : 2,
            "componentType" : 5126,
            "count" : 420,
            "type" : "VEC2"
        },
        {
            "bufferView" : 3,
            "componentType" : 5123,
            "count" : 630,
            "type" : "SCALAR"
        },
        {
            "bufferView" : 4,
            "componentType" : 5126,
            "count" : 240,
            "max" : [
                0.021696723997592926,
                0.009583227336406708,
                0.0159003883600235
            ],
            "min" : [
                0.0016967281699180603,
                -0.0094379261136055,
                -0.004099614918231964
            ],
            "type" : "VEC3"
        },
        {
            "bufferView" : 5,
            "componentType" : 5126,
            "count" : 240,
            "type" : "VEC3"
        },
        {
            "bufferView" : 6,
            "componentType" : 5126,
            "count" : 240,
            "type" : "VEC2"
        },
        {
            "bufferView" : 7,
            "componentType" : 5123,
            "count" : 240,
            "type" : "SCALAR"
        },
        {
            "bufferView" : 8,
            "componentType" : 5126,
            "count" : 4,
            "max" : [
                1,
                0,
                1
            ],
            "min" : [
                -1,
                0,
                -1
            ],
            "type" : "VEC3"
        },
        {
            "bufferView" : 9,
            "componentType" : 5126,
            "count" : 4,
            "type" : "VEC3"
        },
        {
            "bufferView" : 10,
            "componentType" : 5126,
            "count" : 4,
            "type" : "VEC2"
        },
        {
            "bufferView" : 11,
            "componentType" : 5123,
            "count" : 6,
            "type" : "SCALAR"
        },
        {
            "bufferView" : 12,
            "componentType" : 5126,
            "count" : 4,
            "max" : [
                1,
                0,
                1
            ],
            "min" : [
                -1,
                0,
                -1
            ],
            "type" : "VEC3"
        },
        {
            "bufferView" : 13,
            "componentType" : 5126,
            "count" : 4,
            "type" : "VEC3"
        },
        {
            "bufferView" : 14,
            "componentType" : 5126,
            "count" : 4,
            "type" : "VEC2"
        },
        {
            "bufferView" : 15,
            "componentType" : 5126,
            "count" : 4,
            "max" : [
                1,
                0,
                1
            ],
            "min" : [
                -1,
                0,
                -1
            ],
            "type" : "VEC3"
        },
        {
            "bufferView" : 16,
            "componentType" : 5126,
            "count" : 4,
            "type" : "VEC3"
        },
        {
            "bufferView" : 17,
            "componentType" : 5126,
            "count" : 4,
            "type" : "VEC2"
        },
        {
            "bufferView" : 18,
            "componentType" : 5126,
            "count" : 4,
            "max" : [
                1,
                0,
                1
            ],
            "min" : [
                -1,
                0,
                -1
            ],
            "type" : "VEC3"
        },
        {
            "bufferView" : 19,
            "componentType" : 5126,
            "count" : 4,
            "type" : "VEC3"
        },
        {
            "bufferView" : 20,
            "componentType" : 5126,
            "count" : 4,
            "type" : "VEC2"
        },
        {
            "bufferView" : 21,
            "componentType" : 5126,
            "count" : 4,
            "max" : [
                1,
                0,
                1
            ],
            "min" : [
                -1,
                0,
                -1
            ],
            "type" : "VEC3"
        },
        {
            "bufferView" : 22,
            "componentType" : 5126,
            "count" : 4,
            "type" : "VEC3"
        },
        {
            "bufferView" : 23,
            "componentType" : 5126,
            "count" : 4,
            "type" : "VEC2"
        },
        {
            "bufferView" : 24,
            "componentType" : 5126,
            "count" : 4,
            "max" : [
                1,
                0,
                1
            ],
            "min" : [
                -1,
                0,
                -1
            ],
            "type" : "VEC3"
        },
        {
            "bufferView" : 25,
            "componentType" : 5126,
            "count" : 4,
            "type" : "VEC3"
        },
        {
            "bufferView" : 26,
            "componentType" : 5126,
            "count" : 4,
            "type" : "VEC2"
        }
    ],
    "bufferViews" : [
        {
            "buffer" : 0,
            "byteLength" : 5040,
            "byteOffset" : 0
        },
        {
            "buffer" : 0,
            "byteLength" : 5040,
            "byteOffset" : 5040
        },
        {
            "buffer" : 0,
            "byteLength" : 3360,
            "byteOffset" : 10080
        },
        {
            "buffer" : 0,
            "byteLength" : 1260,
            "byteOffset" : 13440
        },
        {
            "buffer" : 0,
            "byteLength" : 2880,
            "byteOffset" : 14700
        },
        {
            "buffer" : 0,
            "byteLength" : 2880,
            "byteOffset" : 17580
        },
        {
            "buffer" : 0,
            "byteLength" : 1920,
            "byteOffset" : 20460
        },
        {
            "buffer" : 0,
            "byteLength" : 480,
            "byteOffset" : 22380
        },
        {
            "buffer" : 0,
            "byteLength" : 48,
            "byteOffset" : 22860
        },
        {
            "buffer" : 0,
            "byteLength" : 48,
            "byteOffset" : 22908
        },
        {
            "buffer" : 0,
            "byteLength" : 32,
            "byteOffset" : 22956
        },
        {
            "buffer" : 0,
            "byteLength" : 12,
            "byteOffset" : 22988
        },
        {
            "buffer" : 0,
            "byteLength" : 48,
            "byteOffset" : 23000
        },
        {
            "buffer" : 0,
            "byteLength" : 48,
            "byteOffset" : 23048
        },
        {
            "buffer" : 0,
            "byteLength" : 32,
            "byteOffset" : 23096
        },
        {
            "buffer" : 0,
            "byteLength" : 48,
            "byteOffset" : 23128
        },
        {
            "buffer" : 0,
            "byteLength" : 48,
            "byteOffset" : 23176
        },
        {
            "buffer" : 0,
            "byteLength" : 32,
            "byteOffset" : 23224
        },
        {
            "buffer" : 0,
            "byteLength" : 48,
            "byteOffset" : 23256
        },
        {
            "buffer" : 0,
            "byteLength" : 48,
            "byteOffset" : 23304
        },
        {
            "buffer" : 0,
            "byteLength" : 32,
            "byteOffset" : 23352
        },
        {
            "buffer" : 0,
            "byteLength" : 48,
            "byteOffset" : 23384
        },
        {
            "buffer" : 0,
            "byteLength" : 48,
            "byteOffset" : 23432
        },
        {
            "buffer" : 0,
            "byteLength" : 32,
            "byteOffset" : 23480
        },
        {
            "buffer" : 0,
            "byteLength" : 48,
            "byteOffset" : 23512
        },
        {
            "buffer" : 0,
            "byteLength" : 48,
            "byteOffset" : 23560
        },
        {
            "buffer" : 0,
            "byteLength" : 32,
            "byteOffset" : 23608
        }
    ],
    "buffers" : [
        {
            "byteLength" : 23640,
            "uri" : "0.bin"
        }
    ]
}
