{
    "asset" : {
        "generator" : "Khronos glTF Blender I/O v1.2.75",
        "version" : "2.0"
    },
    "scene" : 0,
    "scenes" : [
        {
            "name" : "Scene",
            "nodes" : [
                2
            ]
        }
    ],
    "nodes" : [
        {
            "mesh" : 0,
            "name" : "lFoot_001",
            "scale" : [
                0.3937007784843445,
                0.3937007784843445,
                0.3937007784843445
            ],
            "translation" : [
                -37.5,
                -70.61614990234375,
                0
            ]
        },
        {
            "mesh" : 1,
            "name" : "rFoot_001",
            "scale" : [
                0.3937007784843445,
                0.3937007784843445,
                0.3937007784843445
            ],
            "translation" : [
                37.5,
                -70.61614990234375,
                0
            ]
        },
        {
            "children" : [
                0,
                1
            ],
            "name" : "$$$DUMMY.Group01.006",
            "scale" : [
                0.1599999964237213,
                0.1599999964237213,
                0.1599999964237213
            ],
            "translation" : [
                0,
                11.402947425842285,
                0
            ]
        }
    ],
    "materials" : [
        {
            "doubleSided" : true,
            "name" : "Color_I22",
            "pbrMetallicRoughness" : {}
        },
        {
            "doubleSided" : true,
            "name" : "Toe_Protector1",
            "pbrMetallicRoughness" : {}
        },
        {
            "doubleSided" : true,
            "name" : "Jewel1",
            "pbrMetallicRoughness" : {}
        },
        {
            "doubleSided" : true,
            "name" : "Jewel_Mounting1",
            "pbrMetallicRoughness" : {}
        },
        {
            "doubleSided" : true,
            "name" : "Color_D06",
            "pbrMetallicRoughness" : {}
        }
    ],
    "meshes" : [
        {
            "name" : "lFoot_001",
            "primitives" : [
                {
                    "attributes" : {
                        "POSITION" : 0,
                        "NORMAL" : 1,
                        "TEXCOORD_0" : 2
                    },
                    "indices" : 3,
                    "material" : 0
                },
                {
                    "attributes" : {
                        "POSITION" : 4,
                        "NORMAL" : 5,
                        "TEXCOORD_0" : 6
                    },
                    "indices" : 7,
                    "material" : 1
                },
                {
                    "attributes" : {
                        "POSITION" : 8,
                        "NORMAL" : 9,
                        "TEXCOORD_0" : 10
                    },
                    "indices" : 11,
                    "material" : 2
                },
                {
                    "attributes" : {
                        "POSITION" : 12,
                        "NORMAL" : 13,
                        "TEXCOORD_0" : 14
                    },
                    "indices" : 15,
                    "material" : 3
                }
            ]
        },
        {
            "name" : "rFoot_001",
            "primitives" : [
                {
                    "attributes" : {
                        "POSITION" : 16,
                        "NORMAL" : 17,
                        "TEXCOORD_0" : 18
                    },
                    "indices" : 19,
                    "material" : 0
                },
                {
                    "attributes" : {
                        "POSITION" : 20,
                        "NORMAL" : 21,
                        "TEXCOORD_0" : 22
                    },
                    "indices" : 7,
                    "material" : 1
                },
                {
                    "attributes" : {
                        "POSITION" : 23,
                        "NORMAL" : 24,
                        "TEXCOORD_0" : 25
                    },
                    "indices" : 26,
                    "material" : 4
                }
            ]
        }
    ],
    "accessors" : [
        {
            "bufferView" : 0,
            "componentType" : 5126,
            "count" : 32101,
            "max" : [
                81.13299560546875,
                140.7692413330078,
                94.72594451904297
            ],
            "min" : [
                17.059795379638672,
                0.4717540442943573,
                -94.69815063476562
            ],
            "type" : "VEC3"
        },
        {
            "bufferView" : 1,
            "componentType" : 5126,
            "count" : 32101,
            "type" : "VEC3"
        },
        {
            "bufferView" : 2,
            "componentType" : 5126,
            "count" : 32101,
            "type" : "VEC2"
        },
        {
            "bufferView" : 3,
            "componentType" : 5123,
            "count" : 32106,
            "type" : "SCALAR"
        },
        {
            "bufferView" : 4,
            "componentType" : 5126,
            "count" : 336,
            "max" : [
                50.443695068359375,
                5.445857048034668,
                -89.08694458007812
            ],
            "min" : [
                48.091896057128906,
                4.823555946350098,
                -91.4188461303711
            ],
            "type" : "VEC3"
        },
        {
            "bufferView" : 5,
            "componentType" : 5126,
            "count" : 336,
            "type" : "VEC3"
        },
        {
            "bufferView" : 6,
            "componentType" : 5126,
            "count" : 336,
            "type" : "VEC2"
        },
        {
            "bufferView" : 7,
            "componentType" : 5123,
            "count" : 336,
            "type" : "SCALAR"
        },
        {
            "bufferView" : 8,
            "componentType" : 5126,
            "count" : 1218,
            "max" : [
                45.019195556640625,
                27.44345474243164,
                -47.96244430541992
            ],
            "min" : [
                42.9158935546875,
                25.852455139160156,
                -50.454246520996094
            ],
            "type" : "VEC3"
        },
        {
            "bufferView" : 9,
            "componentType" : 5126,
            "count" : 1218,
            "type" : "VEC3"
        },
        {
            "bufferView" : 10,
            "componentType" : 5126,
            "count" : 1218,
            "type" : "VEC2"
        },
        {
            "bufferView" : 11,
            "componentType" : 5123,
            "count" : 1218,
            "type" : "SCALAR"
        },
        {
            "bufferView" : 12,
            "componentType" : 5126,
            "count" : 378,
            "max" : [
                45.08000183105469,
                26.87545394897461,
                -47.91464614868164
            ],
            "min" : [
                42.85499572753906,
                25.793657302856445,
                -50.427345275878906
            ],
            "type" : "VEC3"
        },
        {
            "bufferView" : 13,
            "componentType" : 5126,
            "count" : 378,
            "type" : "VEC3"
        },
        {
            "bufferView" : 14,
            "componentType" : 5126,
            "count" : 378,
            "type" : "VEC2"
        },
        {
            "bufferView" : 15,
            "componentType" : 5123,
            "count" : 378,
            "type" : "SCALAR"
        },
        {
            "bufferView" : 16,
            "componentType" : 5126,
            "count" : 32102,
            "max" : [
                -17.058597564697266,
                140.76315307617188,
                94.72193908691406
            ],
            "min" : [
                -81.13200378417969,
                0.4630565643310547,
                -94.72594451904297
            ],
            "type" : "VEC3"
        },
        {
            "bufferView" : 17,
            "componentType" : 5126,
            "count" : 32102,
            "type" : "VEC3"
        },
        {
            "bufferView" : 18,
            "componentType" : 5126,
            "count" : 32102,
            "type" : "VEC2"
        },
        {
            "bufferView" : 19,
            "componentType" : 5123,
            "count" : 32106,
            "type" : "SCALAR"
        },
        {
            "bufferView" : 20,
            "componentType" : 5126,
            "count" : 336,
            "max" : [
                -48.090293884277344,
                5.473856449127197,
                -89.11564636230469
            ],
            "min" : [
                -50.442100524902344,
                4.8511552810668945,
                -91.44744873046875
            ],
            "type" : "VEC3"
        },
        {
            "bufferView" : 21,
            "componentType" : 5126,
            "count" : 336,
            "type" : "VEC3"
        },
        {
            "bufferView" : 22,
            "componentType" : 5126,
            "count" : 336,
            "type" : "VEC2"
        },
        {
            "bufferView" : 23,
            "componentType" : 5126,
            "count" : 1596,
            "max" : [
                -42.85369110107422,
                27.461854934692383,
                -47.938446044921875
            ],
            "min" : [
                -45.078697204589844,
                25.812355041503906,
                -50.47804260253906
            ],
            "type" : "VEC3"
        },
        {
            "bufferView" : 24,
            "componentType" : 5126,
            "count" : 1596,
            "type" : "VEC3"
        },
        {
            "bufferView" : 25,
            "componentType" : 5126,
            "count" : 1596,
            "type" : "VEC2"
        },
        {
            "bufferView" : 26,
            "componentType" : 5123,
            "count" : 1596,
            "type" : "SCALAR"
        }
    ],
    "bufferViews" : [
        {
            "buffer" : 0,
            "byteLength" : 385212,
            "byteOffset" : 0
        },
        {
            "buffer" : 0,
            "byteLength" : 385212,
            "byteOffset" : 385212
        },
        {
            "buffer" : 0,
            "byteLength" : 256808,
            "byteOffset" : 770424
        },
        {
            "buffer" : 0,
            "byteLength" : 64212,
            "byteOffset" : 1027232
        },
        {
            "buffer" : 0,
            "byteLength" : 4032,
            "byteOffset" : 1091444
        },
        {
            "buffer" : 0,
            "byteLength" : 4032,
            "byteOffset" : 1095476
        },
        {
            "buffer" : 0,
            "byteLength" : 2688,
            "byteOffset" : 1099508
        },
        {
            "buffer" : 0,
            "byteLength" : 672,
            "byteOffset" : 1102196
        },
        {
            "buffer" : 0,
            "byteLength" : 14616,
            "byteOffset" : 1102868
        },
        {
            "buffer" : 0,
            "byteLength" : 14616,
            "byteOffset" : 1117484
        },
        {
            "buffer" : 0,
            "byteLength" : 9744,
            "byteOffset" : 1132100
        },
        {
            "buffer" : 0,
            "byteLength" : 2436,
            "byteOffset" : 1141844
        },
        {
            "buffer" : 0,
            "byteLength" : 4536,
            "byteOffset" : 1144280
        },
        {
            "buffer" : 0,
            "byteLength" : 4536,
            "byteOffset" : 1148816
        },
        {
            "buffer" : 0,
            "byteLength" : 3024,
            "byteOffset" : 1153352
        },
        {
            "buffer" : 0,
            "byteLength" : 756,
            "byteOffset" : 1156376
        },
        {
            "buffer" : 0,
            "byteLength" : 385224,
            "byteOffset" : 1157132
        },
        {
            "buffer" : 0,
            "byteLength" : 385224,
            "byteOffset" : 1542356
        },
        {
            "buffer" : 0,
            "byteLength" : 256816,
            "byteOffset" : 1927580
        },
        {
            "buffer" : 0,
            "byteLength" : 64212,
            "byteOffset" : 2184396
        },
        {
            "buffer" : 0,
            "byteLength" : 4032,
            "byteOffset" : 2248608
        },
        {
            "buffer" : 0,
            "byteLength" : 4032,
            "byteOffset" : 2252640
        },
        {
            "buffer" : 0,
            "byteLength" : 2688,
            "byteOffset" : 2256672
        },
        {
            "buffer" : 0,
            "byteLength" : 19152,
            "byteOffset" : 2259360
        },
        {
            "buffer" : 0,
            "byteLength" : 19152,
            "byteOffset" : 2278512
        },
        {
            "buffer" : 0,
            "byteLength" : 12768,
            "byteOffset" : 2297664
        },
        {
            "buffer" : 0,
            "byteLength" : 3192,
            "byteOffset" : 2310432
        }
    ],
    "buffers" : [
        {
            "byteLength" : 2313624,
            "uri" : "3.bin"
        }
    ]
}
