{"accessors":[{"bufferView":0,"componentType":5121,"count":36,"max":[23],"min":[0],"type":"SCALAR"},{"bufferView":1,"componentType":5126,"count":24,"max":[1.0,1.0,1.0],"min":[-1.0,-1.0,-1.0],"type":"VEC3"},{"bufferView":2,"componentType":5126,"count":24,"max":[1.0,1.0,1.0],"min":[-1.0,-1.0,-1.0],"type":"VEC3"},{"bufferView":3,"componentType":5126,"count":24,"max":[0.875,1.0],"min":[0.125,0.0],"type":"VEC2"}],"asset":{"generator":"Soft8Soft Verge3D for Blender add-on","version":"2.0"},"bufferViews":[{"buffer":0,"byteLength":36,"byteOffset":0,"target":34963},{"buffer":0,"byteLength":288,"byteOffset":36,"target":34962},{"buffer":0,"byteLength":288,"byteOffset":324,"target":34962},{"buffer":0,"byteLength":192,"byteOffset":612,"target":34962}],"buffers":[{"byteLength":804,"uri":"App.bin"}],"cameras":[{"extensions":{"S8S_v3d_camera_data":{"controls":"ORBIT","enablePan":true,"moveSpeed":1.0,"orbitMaxDistance":100.0,"orbitMaxPolarAngle":3.1415927410125732,"orbitMinDistance":0.0,"orbitMinPolarAngle":0.0,"orbitTarget":[0.0,0.0,-0.0],"rotateSpeed":1.0,"viewportFitInitialAspect":1.7777777777777777,"viewportFitType":"AUTO"}},"name":"Camera.001","perspective":{"aspectRatio":1.7777777777777777,"yfov":0.8293779899043592,"zfar":1000.0,"znear":0.10000000149011612},"type":"perspective"},{"extensions":{"S8S_v3d_camera_data":{"controls":"ORBIT","enablePan":true,"moveSpeed":1.0,"orbitMaxDistance":50.0,"orbitMaxPolarAngle":1.5707963705062866,"orbitMinDistance":5.0,"orbitMinPolarAngle":0.0,"orbitTarget":[0.0,0.0,-0.0],"rotateSpeed":1.0,"viewportFitInitialAspect":1.7777777777777777,"viewportFitType":"AUTO"}},"name":"Camera","perspective":{"aspectRatio":1.7777777777777777,"yfov":1.3280923870262473,"zfar":1000.0,"znear":0.0010000000474974513},"type":"perspective"},{"extensions":{"S8S_v3d_camera_data":{"controls":"ORBIT","enablePan":true,"moveSpeed":1.0,"orbitMaxDistance":100.0,"orbitMaxPolarAngle":3.1415927410125732,"orbitMinDistance":0.0,"orbitMinPolarAngle":0.0,"orbitTarget":[0.0,0.0,-0.0],"rotateSpeed":1.0,"viewportFitInitialAspect":1.7777777777777777,"viewportFitType":"AUTO"}},"name":"Camera.000","orthographic":{"xmag":15.0,"ymag":8.4375,"zfar":1000.0,"znear":9.999999974752427e-07},"type":"orthographic"}],"extensions":{"S8S_v3d_data":{"lights":[{"angle":0.5235987901687622,"color":[1.0,1.0,1.0],"constantAttenuation":1.0,"decay":2,"distance":0.7071067890890818,"fallOffAngle":1.0471975803375244,"fallOffExponent":19.200000762939453,"intensity":0.5,"linearAttenuation":0.0,"name":"Light","penumbra":0.15000000596046448,"profile":"blender","quadraticAttenuation":1.4142135465680268,"shadow":{"bias":-0.0018,"cameraFar":0.7071067890890818,"cameraFov":1.0471975803375244,"cameraNear":0.05000000074505806,"enabled":true,"expBias":2.5,"mapSize":512,"radius":1.0,"slopeScaledBias":2.5},"type":"spot"},{"angle":0.5235987901687622,"color":[1.0,1.0,1.0],"constantAttenuation":1.0,"decay":2,"distance":0.7071067890890818,"fallOffAngle":1.0471975803375244,"fallOffExponent":19.200000762939453,"intensity":0.5,"linearAttenuation":0.0,"name":"Spot","penumbra":0.15000000596046448,"profile":"blender","quadraticAttenuation":1.4142135465680268,"shadow":{"bias":-0.0018,"cameraFar":0.7071067890890818,"cameraFov":1.0471975803375244,"cameraNear":0.05000000074505806,"enabled":true,"expBias":2.5,"mapSize":512,"radius":1.0,"slopeScaledBias":2.5},"type":"spot"},{"angle":0.5235987901687622,"color":[1.0,1.0,1.0],"constantAttenuation":1.0,"decay":2,"distance":0.7071067890890818,"fallOffAngle":1.0471975803375244,"fallOffExponent":19.200000762939453,"intensity":0.5,"linearAttenuation":0.0,"name":"Sun","penumbra":0.15000000596046448,"profile":"blender","quadraticAttenuation":1.4142135465680268,"shadow":{"bias":-0.0018,"cameraFar":0.7071067890890818,"cameraFov":1.0471975803375244,"cameraNear":0.05000000074505806,"enabled":true,"expBias":2.5,"mapSize":512,"radius":1.0,"slopeScaledBias":2.5},"type":"spot"}]}},"extensionsUsed":["S8S_v3d_texture_data","S8S_v3d_material_data","S8S_v3d_camera_data","S8S_v3d_data","S8S_v3d_mesh_data","S8S_v3d_node_data","S8S_v3d_scene_data"],"images":[{"uri":"environment.hdr"}],"materials":[{"extensions":{"S8S_v3d_material_data":{"nodeGraph":{"edges":[{"fromNode":0,"fromOutput":0,"toInput":0,"toNode":1}],"nodes":[{"inputs":[[0.0,0.0,0.0,1.0],0.0,[1.0,0.20000000298023224,0.10000000149011612],[0.0,0.0,0.0,1.0],0.0,0.5,0.0,1.0,0.0,0.0,0.0,0.0,0.0,0.0,1.4500000476837158,0.0,0.0,[0.0,0.0,0.0,1.0],1.0,[0.0,0.0,0.0],[0.0,0.0,0.0],[0.0,0.0,0.0]],"is_active_output":false,"name":"Principled BSDF","outputs":[[0,0,0,0]],"type":"BSDF_PRINCIPLED_BL"},{"inputs":[[0,0,0,0],[0,0,0,0],[0.0,0.0,0.0]],"is_active_output":true,"name":"Material Output","outputs":[],"type":"OUTPUT_MATERIAL_BL"}]},"useCastShadows":true}},"name":"Material"},{"extensions":{"S8S_v3d_material_data":{"nodeGraph":{"edges":[{"fromNode":2,"fromOutput":0,"toInput":0,"toNode":3},{"fromNode":0,"fromOutput":0,"toInput":0,"toNode":4},{"fromNode":1,"fromOutput":0,"toInput":0,"toNode":5},{"fromNode":5,"fromOutput":0,"toInput":0,"toNode":0}],"nodes":[{"inputs":[[0.05087608844041824,0.05087608844041824,0.05087608844041824,1.0],0.009999999776482582],"is_active_output":false,"name":"Background","outputs":[[0,0,0,0]],"type":"BACKGROUND_BL"},{"inputs":[[0.0,0.0,0.0]],"is_active_output":false,"name":"Environment Texture","outputs":[[0.0,0.0,0.0,0.0]],"projection":"EQUIRECTANGULAR","texture":0,"type":"TEX_ENVIRONMENT_BL"},{"inputs":[],"is_active_output":false,"name":"Light Path","outputs":[0.0,0.0,0.0,0.0,0.0,0.0,0.0,0.0,0.0,0.0,0.0,0.0,0.0],"type":"LIGHT_PATH_BL"},{"blendType":"MIX","inputs":[0.5,[0.5,0.5,0.5,1.0],[0.05126946419477463,0.05126946419477463,0.05126946419477463,1.0]],"is_active_output":false,"name":"Mix","outputs":[[0.0,0.0,0.0,0.0]],"type":"MIX_RGB_BL","useClamp":false},{"inputs":[[0,0,0,0],[0,0,0,0]],"is_active_output":true,"name":"World Output","outputs":[],"type":"OUTPUT_WORLD_BL"},{"inputs":[[0.5,0.5,0.5,1.0]],"is_active_output":false,"name":"RGB to BW","outputs":[0.0],"type":"RGBTOBW_BL"}]},"useCastShadows":true}},"name":"Verge3D_Environment_World"}],"meshes":[{"extensions":{"S8S_v3d_mesh_data":{"colorLayers":{},"uvLayers":{"UVMap":"TEXCOORD_0"}}},"name":"Cube","primitives":[{"attributes":{"NORMAL":2,"POSITION":1,"TEXCOORD_0":3},"indices":0,"material":0,"mode":4}]}],"nodes":[{"camera":2,"extensions":{"S8S_v3d_node_data":{"constraints":[{"mute":false,"name":"Track To","target":7,"trackAxis":"-Z","type":"trackTo","upAxis":"Y"}],"frustumCulling":true,"groupNames":[],"hidden":false,"renderOrder":0}},"name":"Camera.000","rotation":[5.424847770996166e-08,0.7071068286895752,-5.4248470604534305e-08,0.7071067094802856],"scale":[1.0,0.9999999403953552,0.9999999403953552],"translation":[10.0,9.999999046325684,-10.0]},{"extensions":{"S8S_v3d_node_data":{"frustumCulling":true,"groupNames":[],"hidden":false,"renderOrder":0,"useShadows":true}},"mesh":0,"name":"Cube","translation":[0.0,32.0,-0.0]},{"extensions":{"S8S_v3d_node_data":{"frustumCulling":true,"groupNames":[],"hidden":false,"light":1,"renderOrder":0}},"name":"Spot","rotation":[-0.8391769528388977,-0.17924350500106812,0.17924349009990692,0.48117104172706604],"scale":[3.299999952316284,3.299999713897705,3.299999475479126],"translation":[-19.0,26.999998092651367,-19.0]},{"extensions":{"S8S_v3d_node_data":{"frustumCulling":true,"groupNames":[],"hidden":false,"renderOrder":0}},"name":"1_place"},{"extensions":{"S8S_v3d_node_data":{"frustumCulling":true,"groupNames":[],"hidden":false,"renderOrder":0}},"name":"3_place"},{"extensions":{"S8S_v3d_node_data":{"frustumCulling":true,"groupNames":[],"hidden":false,"renderOrder":0}},"name":"6_place"},{"extensions":{"S8S_v3d_node_data":{"frustumCulling":true,"groupNames":[],"hidden":false,"renderOrder":0}},"name":"8_place"},{"extensions":{"S8S_v3d_node_data":{"frustumCulling":true,"groupNames":[],"hidden":false,"renderOrder":0}},"name":"Empty","rotation":[0.0,0.7071068286895752,-0.0,0.7071067690849304],"translation":[0.0,29.999998092651367,-0.0]},{"extensions":{"S8S_v3d_node_data":{"frustumCulling":true,"groupNames":[],"hidden":false,"light":2,"renderOrder":0}},"name":"Sun","rotation":[-0.8417505025863647,0.17671515047550201,-0.1767151653766632,0.47853919863700867],"scale":[3.299999952316284,3.299999713897705,3.299999713897705],"translation":[19.0,26.999998092651367,-19.0]},{"camera":1,"extensions":{"S8S_v3d_node_data":{"frustumCulling":true,"groupNames":[],"hidden":false,"renderOrder":0}},"name":"Camera","rotation":[-0.11591677367687225,0.8804763555526733,0.27984818816185,0.3647051453590393],"scale":[3000.0009765625,3000.0,3000.000244140625],"translation":[10.0,9.999999046325684,-10.0]},{"extensions":{"S8S_v3d_node_data":{"frustumCulling":true,"groupNames":[],"hidden":false,"light":0,"renderOrder":0}},"name":"Light","rotation":[-0.4796086549758911,0.19688715040683746,-0.19870638847351074,0.8317011594772339],"scale":[3.299999952316284,3.299999952316284,3.299999713897705],"translation":[18.0,26.999998092651367,18.0]},{"extensions":{"S8S_v3d_node_data":{"frustumCulling":true,"groupNames":[],"hidden":false,"renderOrder":0}},"name":"0_place"},{"extensions":{"S8S_v3d_node_data":{"frustumCulling":true,"groupNames":[],"hidden":false,"renderOrder":0}},"name":"2_place"},{"extensions":{"S8S_v3d_node_data":{"frustumCulling":true,"groupNames":[],"hidden":false,"renderOrder":0}},"name":"4_place"},{"extensions":{"S8S_v3d_node_data":{"frustumCulling":true,"groupNames":[],"hidden":false,"renderOrder":0}},"name":"5_place"},{"extensions":{"S8S_v3d_node_data":{"frustumCulling":true,"groupNames":[],"hidden":false,"renderOrder":0}},"name":"7_place"},{"camera":0,"extensions":{"S8S_v3d_node_data":{"frustumCulling":true,"groupNames":[],"hidden":false,"renderOrder":0}},"name":"Camera.001","rotation":[-0.35355329513549805,-0.3535533845424652,-0.1464465707540512,0.8535534739494324],"scale":[10.0,10.0,9.999999046325684],"translation":[-5.0,7.0,5.0]}],"samplers":[{}],"scene":0,"scenes":[{"extensions":{"S8S_v3d_scene_data":{"aaMethod":"AUTO","iblEnvironmentMode":"PMREM","physicallyCorrectLights":true,"pmremMaxTileSize":256,"shadowMap":{"esmDistanceScale":1.0,"renderReverseSided":false,"renderSingleSided":true,"type":"PCFPOISSON"},"worldMaterial":1}},"extras":{"animFrameRate":24,"coordSystem":"Z_UP_RIGHT"},"name":"Scene","nodes":[0,9,1,7,8,2,10,11,3,12,4,13,14,5,15,6,16]}],"textures":[{"extensions":{"S8S_v3d_texture_data":{"colorSpace":"linear"}},"name":"environment.hdr","sampler":0,"source":0}]}
